<svg class="diagram-root" style="background: #f5f6f6" xmlns="http://www.w3.org/2000/svg" xmlns:xlink="http://www.w3.org/1999/xlink"><style>.diagram-root { font-family: "Helvetica Neue", sans-serif; font-size: 12px; } .t { overflow: visible; } .t-bg { y: 40; fill: #fff;   } .th { fill: #005aa0;   } .tht { fill: #fff; font-size: 14px;  } .tf { fill: #323c46; overflow: visible; } .tf.pk { fill: #005aa0; font-weight: bold; } .tf.fk { font-weight: bold; } .ty { fill: #adb1b5; font-weight: normal; text-anchor: end; } .r { fill: transparent; stroke: #c3c3c3; stroke-width: 1; } .l { stroke: 1; } .i { fill: #c2c7ce; stroke: #c2c7ce; } .i.ix { fill: #afb3b6; stroke: #000; } .fa { fill: transparent; overflow: visible; } .fa .bg.hover { fill: #f7f7f7; } .c { cy: 12; r: 4; stroke: #d2d2dc; fill: #d2d2dc; } .hr { fill: transparent; stroke: #323c46; stroke-opacity: 0.035; stroke-width: 13; } .dc { stroke: #fa5a3c; fill: #fa5a3c; } .x { stroke: white; stroke-width: 1; } .hl .th { fill: #1b9bff; } .hl .tht {  } .fhl .bg { fill: #e7f4ff; } .fhls .bg {  } .r.hl { stroke: #1b9bff; } .dim { opacity: 0.25; }</style><g class="drawing-wrapper" transform="translate(20.816363636363636, -163.6318181818183) scale(1,1)"><g class="rs"><path d="M 1.18 278.1 m -1, 0 a 1,1 0 1,0 2,0 a 1,1 0 1,0 -2,0 M 1.18 278.1 m -0.5, 0 a 0.5,0.5 0 1,0 1,0 a 0.5,0.5 0 1,0 -1,0  M1.18 278.1 L1.18 278.1 -10.82 278.1 M 1.18 284.1 m -1, 0 a 1,1 0 1,0 2,0 a 1,1 0 1,0 -2,0 M 1.18 284.1 m -0.5, 0 a 0.5,0.5 0 1,0 1,0 a 0.5,0.5 0 1,0 -1,0  M1.18 284.1 L1.18 284.1 -5.82 278.1 1.18 272.1 M 1.18 272.1 m -1, 0 a 1,1 0 1,0 2,0 a 1,1 0 1,0 -2,0 M 1.18 272.1 m -0.5, 0 a 0.5,0.5 0 1,0 1,0 a 0.5,0.5 0 1,0 -1,0  M-10.82 278.1 C -59.16802868553978 278.1, -80.49802868553978 418.72, 24.729999999999997 418.72 M 36.73 418.72 m -1, 0 a 1,1 0 1,0 2,0 a 1,1 0 1,0 -2,0 M 36.73 418.72 m -0.5, 0 a 0.5,0.5 0 1,0 1,0 a 0.5,0.5 0 1,0 -1,0  M36.73 418.72 L36.73 418.72 24.729999999999997 418.72 M30.729999999999997 424.72 L30.729999999999997 424.72 30.729999999999997 412.72" id="h3094402461" class="r"></path><path d="M 277.18 325.63 m -1, 0 a 1,1 0 1,0 2,0 a 1,1 0 1,0 -2,0 M 277.18 325.63 m -0.5, 0 a 0.5,0.5 0 1,0 1,0 a 0.5,0.5 0 1,0 -1,0  M277.18 325.63 L277.18 325.63 265.18 325.63 M 277.18 331.63 m -1, 0 a 1,1 0 1,0 2,0 a 1,1 0 1,0 -2,0 M 277.18 331.63 m -0.5, 0 a 0.5,0.5 0 1,0 1,0 a 0.5,0.5 0 1,0 -1,0  M277.18 331.63 L277.18 331.63 270.18 325.63 277.18 319.63 M 277.18 319.63 m -1, 0 a 1,1 0 1,0 2,0 a 1,1 0 1,0 -2,0 M 277.18 319.63 m -0.5, 0 a 0.5,0.5 0 1,0 1,0 a 0.5,0.5 0 1,0 -1,0  M265.18 325.63 Q 248.2 325.63, 231.21 289.37 T 197.24 253.1 M 185.24 253.1 m -1, 0 a 1,1 0 1,0 2,0 a 1,1 0 1,0 -2,0 M 185.24 253.1 m -0.5, 0 a 0.5,0.5 0 1,0 1,0 a 0.5,0.5 0 1,0 -1,0  M185.24 253.1 L185.24 253.1 197.24 253.1 M191.24 259.1 L191.24 259.1 191.24 247.1" id="h562985685" class="r"></path><path d="M 277.18 375.63 m -1, 0 a 1,1 0 1,0 2,0 a 1,1 0 1,0 -2,0 M 277.18 375.63 m -0.5, 0 a 0.5,0.5 0 1,0 1,0 a 0.5,0.5 0 1,0 -1,0  M277.18 375.63 L277.18 375.63 265.18 375.63 M 277.18 381.63 m -1, 0 a 1,1 0 1,0 2,0 a 1,1 0 1,0 -2,0 M 277.18 381.63 m -0.5, 0 a 0.5,0.5 0 1,0 1,0 a 0.5,0.5 0 1,0 -1,0  M277.18 381.63 L277.18 381.63 270.18 375.63 277.18 369.63 M 277.18 369.63 m -1, 0 a 1,1 0 1,0 2,0 a 1,1 0 1,0 -2,0 M 277.18 369.63 m -0.5, 0 a 0.5,0.5 0 1,0 1,0 a 0.5,0.5 0 1,0 -1,0  M265.18 375.63 Q 237.08 375.63, 208.97 397.18 T 152.75 418.72 M 140.75 418.72 m -1, 0 a 1,1 0 1,0 2,0 a 1,1 0 1,0 -2,0 M 140.75 418.72 m -0.5, 0 a 0.5,0.5 0 1,0 1,0 a 0.5,0.5 0 1,0 -1,0  M140.75 418.72 L140.75 418.72 152.75 418.72 M146.75 424.72 L146.75 424.72 146.75 412.72" id="h2544650471" class="r"></path><path d="M 438.56 400.63 m -1, 0 a 1,1 0 1,0 2,0 a 1,1 0 1,0 -2,0 M 438.56 400.63 m -0.5, 0 a 0.5,0.5 0 1,0 1,0 a 0.5,0.5 0 1,0 -1,0  M438.56 400.63 L438.56 400.63 450.56 400.63 M 438.56 406.63 m -1, 0 a 1,1 0 1,0 2,0 a 1,1 0 1,0 -2,0 M 438.56 406.63 m -0.5, 0 a 0.5,0.5 0 1,0 1,0 a 0.5,0.5 0 1,0 -1,0  M438.56 406.63 L438.56 406.63 445.56 400.63 438.56 394.63 M 438.56 394.63 m -1, 0 a 1,1 0 1,0 2,0 a 1,1 0 1,0 -2,0 M 438.56 394.63 m -0.5, 0 a 0.5,0.5 0 1,0 1,0 a 0.5,0.5 0 1,0 -1,0  M450.56 400.63 Q 466.77 400.63, 482.97 381.63 T 515.37 362.63 M 527.37 362.63 m -1, 0 a 1,1 0 1,0 2,0 a 1,1 0 1,0 -2,0 M 527.37 362.63 m -0.5, 0 a 0.5,0.5 0 1,0 1,0 a 0.5,0.5 0 1,0 -1,0  M527.37 362.63 L527.37 362.63 515.37 362.63 M521.37 368.63 L521.37 368.63 521.37 356.63" id="h2965294969" class="r"></path></g><g class="hrs"></g><g class="ts"><svg width="104.02" height="100" x="36.73" y="361.72" id="h3849288478" class="t"><rect height="40" width="104.02" class="th"></rect><text x="13" y="25" class="tht">Region</text><rect height="60" width="104.02" class="t-bg"></rect><text x="13" y="61" class="tf pk">id<tspan x="91.02" class="ty">serial</tspan></text><path d="M7,14A2,2 0 0,1 5,12A2,2 0 0,1 7,10A2,2 0 0,1 9,12A2,2 0 0,1 7,14M12.65,10C11.83,7.67 9.61,6 7, 6A6, 6 0 0, 0 1, 12A6, 6 0 0, 0 7, 18C9.61, 18 11.83, 16.33 12.65, 14H17V18H21V14H23V10H12.65Z" class="i pk" transform="translate(42.344218749999996, 48) scale(0.65)"></path><text x="13" y="86" class="tf">name<tspan x="91.02" class="ty">text</tspan></text></svg><svg width="184.06" height="100" x="1.18" y="196.1" id="h1537667952" class="t"><rect height="40" width="184.06" class="th"></rect><text x="13" y="25" class="tht">User</text><rect height="60" width="184.06" class="t-bg"></rect><text x="13" y="61" class="tf pk">id<tspan x="171.06" class="ty">serial</tspan></text><path d="M7,14A2,2 0 0,1 5,12A2,2 0 0,1 7,10A2,2 0 0,1 9,12A2,2 0 0,1 7,14M12.65,10C11.83,7.67 9.61,6 7, 6A6, 6 0 0, 0 1, 12A6, 6 0 0, 0 7, 18C9.61, 18 11.83, 16.33 12.65, 14H17V18H21V14H23V10H12.65Z" class="i pk" transform="translate(122.38421875, 48) scale(0.65)"></path><text x="13" y="86" class="tf fk">prefered_region<tspan x="171.06" class="ty">INTEGER</tspan></text></svg><svg width="161.38" height="225" x="277.18" y="193.63" id="h1611266215" class="t"><rect height="40" width="161.38" class="th"></rect><text x="13" y="25" class="tht">Posts</text><rect height="185" width="161.38" class="t-bg"></rect><text x="13" y="61" class="tf pk">id<tspan x="148.38" class="ty">serial</tspan></text><path d="M7,14A2,2 0 0,1 5,12A2,2 0 0,1 7,10A2,2 0 0,1 9,12A2,2 0 0,1 7,14M12.65,10C11.83,7.67 9.61,6 7, 6A6, 6 0 0, 0 1, 12A6, 6 0 0, 0 7, 18C9.61, 18 11.83, 16.33 12.65, 14H17V18H21V14H23V10H12.65Z" class="i pk" transform="translate(99.70421875, 48) scale(0.65)"></path><text x="13" y="86" class="tf">title<tspan x="148.38" class="ty">text</tspan></text><text x="13" y="111" class="tf">text<tspan x="148.38" class="ty">text</tspan></text><text x="13" y="136" class="tf fk">user_id<tspan x="148.38" class="ty">INTEGER</tspan></text><text x="13" y="161" class="tf">location<tspan x="148.38" class="ty">text</tspan></text><text x="13" y="186" class="tf fk">region_id<tspan x="148.38" class="ty">INTEGER</tspan></text><text x="13" y="211" class="tf fk">category_id<tspan x="148.38" class="ty">INTEGER</tspan></text></svg><svg width="104.02" height="100" x="527.37" y="305.63" id="h1903237708" class="t"><rect height="40" width="104.02" class="th"></rect><text x="13" y="25" class="tht">Category</text><rect height="60" width="104.02" class="t-bg"></rect><text x="13" y="61" class="tf pk">id<tspan x="91.02" class="ty">serial</tspan></text><path d="M7,14A2,2 0 0,1 5,12A2,2 0 0,1 7,10A2,2 0 0,1 9,12A2,2 0 0,1 7,14M12.65,10C11.83,7.67 9.61,6 7, 6A6, 6 0 0, 0 1, 12A6, 6 0 0, 0 7, 18C9.61, 18 11.83, 16.33 12.65, 14H17V18H21V14H23V10H12.65Z" class="i pk" transform="translate(42.344218749999996, 48) scale(0.65)"></path><text x="13" y="86" class="tf">name<tspan x="91.02" class="ty">text</tspan></text></svg></g></g><text class="qdbd-link" x="10" y="20">www.quickdatabasediagrams.com</text></svg>