<svg class="diagram-root" style="background: #f5f6f6" xmlns="http://www.w3.org/2000/svg" xmlns:xlink="http://www.w3.org/1999/xlink"><style>.diagram-root { font-family: "Helvetica Neue", sans-serif; font-size: 12px; } .t { overflow: visible; } .t-bg { y: 40; fill: #fff;   } .th { fill: #005aa0;   } .tht { fill: #fff; font-size: 14px;  } .tf { fill: #323c46; overflow: visible; } .tf.pk { fill: #005aa0; font-weight: bold; } .tf.fk { font-weight: bold; } .ty { fill: #adb1b5; font-weight: normal; text-anchor: end; } .r { fill: transparent; stroke: #c3c3c3; stroke-width: 1; } .l { stroke: 1; } .i { fill: #c2c7ce; stroke: #c2c7ce; } .i.ix { fill: #afb3b6; stroke: #000; } .fa { fill: transparent; overflow: visible; } .fa .bg.hover { fill: #f7f7f7; } .c { cy: 12; r: 4; stroke: #d2d2dc; fill: #d2d2dc; } .hr { fill: transparent; stroke: #323c46; stroke-opacity: 0.035; stroke-width: 13; } .dc { stroke: #fa5a3c; fill: #fa5a3c; } .x { stroke: white; stroke-width: 1; } .hl .th { fill: #1b9bff; } .hl .tht {  } .fhl .bg { fill: #e7f4ff; } .fhls .bg {  } .r.hl { stroke: #1b9bff; } .dim { opacity: 0.25; }</style><g class="drawing-wrapper" transform="translate(20, -224.45) scale(1,1)"><g class="rs"><path d="M 217.36 372.09 m -1, 0 a 1,1 0 1,0 2,0 a 1,1 0 1,0 -2,0 M 217.36 372.09 m -0.5, 0 a 0.5,0.5 0 1,0 1,0 a 0.5,0.5 0 1,0 -1,0  M217.36 372.09 L217.36 372.09 205.36 372.09 M 217.36 378.09 m -1, 0 a 1,1 0 1,0 2,0 a 1,1 0 1,0 -2,0 M 217.36 378.09 m -0.5, 0 a 0.5,0.5 0 1,0 1,0 a 0.5,0.5 0 1,0 -1,0  M217.36 378.09 L217.36 378.09 210.36 372.09 217.36 366.09 M 217.36 366.09 m -1, 0 a 1,1 0 1,0 2,0 a 1,1 0 1,0 -2,0 M 217.36 366.09 m -0.5, 0 a 0.5,0.5 0 1,0 1,0 a 0.5,0.5 0 1,0 -1,0  M205.36 372.09 Q 185.03 372.09, 164.69 341.77 T 124.02 311.45 M 112.02 311.45 m -1, 0 a 1,1 0 1,0 2,0 a 1,1 0 1,0 -2,0 M 112.02 311.45 m -0.5, 0 a 0.5,0.5 0 1,0 1,0 a 0.5,0.5 0 1,0 -1,0  M112.02 311.45 L112.02 311.45 124.02 311.45 M118.02 317.45 L118.02 317.45 118.02 305.45" id="h2579287065" class="r"></path><path d="M 217.36 397.09 m -1, 0 a 1,1 0 1,0 2,0 a 1,1 0 1,0 -2,0 M 217.36 397.09 m -0.5, 0 a 0.5,0.5 0 1,0 1,0 a 0.5,0.5 0 1,0 -1,0  M217.36 397.09 L217.36 397.09 205.36 397.09 M 217.36 403.09 m -1, 0 a 1,1 0 1,0 2,0 a 1,1 0 1,0 -2,0 M 217.36 403.09 m -0.5, 0 a 0.5,0.5 0 1,0 1,0 a 0.5,0.5 0 1,0 -1,0  M217.36 403.09 L217.36 403.09 210.36 397.09 217.36 391.09 M 217.36 391.09 m -1, 0 a 1,1 0 1,0 2,0 a 1,1 0 1,0 -2,0 M 217.36 391.09 m -0.5, 0 a 0.5,0.5 0 1,0 1,0 a 0.5,0.5 0 1,0 -1,0  M205.36 397.09 Q 190.2 397.09, 175.04 433.54 T 144.72 470 M 132.72 470 m -1, 0 a 1,1 0 1,0 2,0 a 1,1 0 1,0 -2,0 M 132.72 470 m -0.5, 0 a 0.5,0.5 0 1,0 1,0 a 0.5,0.5 0 1,0 -1,0  M132.72 470 L132.72 470 144.72 470 M138.72 476 L138.72 476 138.72 464" id="h2632598602" class="r"></path><path d="M 461.3730769230771 400.75615384615384 m -1, 0 a 1,1 0 1,0 2,0 a 1,1 0 1,0 -2,0 M 461.3730769230771 400.75615384615384 m -0.5, 0 a 0.5,0.5 0 1,0 1,0 a 0.5,0.5 0 1,0 -1,0  M461.3730769230771 400.75615384615384 L461.3730769230771 400.75615384615384 449.3730769230771 400.75615384615384 M 461.3730769230771 406.75615384615384 m -1, 0 a 1,1 0 1,0 2,0 a 1,1 0 1,0 -2,0 M 461.3730769230771 406.75615384615384 m -0.5, 0 a 0.5,0.5 0 1,0 1,0 a 0.5,0.5 0 1,0 -1,0  M461.3730769230771 406.75615384615384 L461.3730769230771 406.75615384615384 454.3730769230771 400.75615384615384 461.3730769230771 394.75615384615384 M 461.3730769230771 394.75615384615384 m -1, 0 a 1,1 0 1,0 2,0 a 1,1 0 1,0 -2,0 M 461.3730769230771 394.75615384615384 m -0.5, 0 a 0.5,0.5 0 1,0 1,0 a 0.5,0.5 0 1,0 -1,0  M449.3730769230771 400.75615384615384 Q 432.22 400.75615384615384, 415.06 373.92 T 380.74 347.09 M 368.74 347.09 m -1, 0 a 1,1 0 1,0 2,0 a 1,1 0 1,0 -2,0 M 368.74 347.09 m -0.5, 0 a 0.5,0.5 0 1,0 1,0 a 0.5,0.5 0 1,0 -1,0  M368.74 347.09 L368.74 347.09 380.74 347.09 M374.74 353.09 L374.74 353.09 374.74 341.09" id="h3228824038" class="r"></path></g><g class="hrs"></g><g class="ts"><svg width="104.02" height="125" x="8" y="254.45" id="h620315142" class="t"><rect height="40" width="104.02" class="th"></rect><text x="13" y="25" class="tht">Doctor</text><rect height="85" width="104.02" class="t-bg"></rect><text x="13" y="61" class="tf pk">id<tspan x="91.02" class="ty">serial</tspan></text><path d="M7,14A2,2 0 0,1 5,12A2,2 0 0,1 7,10A2,2 0 0,1 9,12A2,2 0 0,1 7,14M12.65,10C11.83,7.67 9.61,6 7, 6A6, 6 0 0, 0 1, 12A6, 6 0 0, 0 7, 18C9.61, 18 11.83, 16.33 12.65, 14H17V18H21V14H23V10H12.65Z" class="i pk" transform="translate(42.344218749999996, 48) scale(0.65)"></path><text x="13" y="86" class="tf">name<tspan x="91.02" class="ty">text</tspan></text><text x="13" y="111" class="tf">title<tspan x="91.02" class="ty">text</tspan></text></svg><svg width="130.72" height="175" x="2" y="413" id="h959375892" class="t"><rect height="40" width="130.72" class="th"></rect><text x="13" y="25" class="tht">Patient</text><rect height="135" width="130.72" class="t-bg"></rect><text x="13" y="61" class="tf pk">id<tspan x="117.72" class="ty">serial</tspan></text><path d="M7,14A2,2 0 0,1 5,12A2,2 0 0,1 7,10A2,2 0 0,1 9,12A2,2 0 0,1 7,14M12.65,10C11.83,7.67 9.61,6 7, 6A6, 6 0 0, 0 1, 12A6, 6 0 0, 0 7, 18C9.61, 18 11.83, 16.33 12.65, 14H17V18H21V14H23V10H12.65Z" class="i pk" transform="translate(69.04421875, 48) scale(0.65)"></path><text x="13" y="86" class="tf">name<tspan x="117.72" class="ty">text</tspan></text><text x="13" y="111" class="tf">birthdate<tspan x="117.72" class="ty">text</tspan></text><text x="13" y="136" class="tf">address<tspan x="117.72" class="ty">text</tspan></text><text x="13" y="161" class="tf">insurance<tspan x="117.72" class="ty">text?</tspan></text></svg><svg width="151.38" height="150" x="217.36" y="290.09" id="h4191216053" class="t"><rect height="40" width="151.38" class="th"></rect><text x="13" y="25" class="tht">Visit</text><rect height="110" width="151.38" class="t-bg"></rect><text x="13" y="61" class="tf pk">id<tspan x="138.38" class="ty">serial</tspan></text><path d="M7,14A2,2 0 0,1 5,12A2,2 0 0,1 7,10A2,2 0 0,1 9,12A2,2 0 0,1 7,14M12.65,10C11.83,7.67 9.61,6 7, 6A6, 6 0 0, 0 1, 12A6, 6 0 0, 0 7, 18C9.61, 18 11.83, 16.33 12.65, 14H17V18H21V14H23V10H12.65Z" class="i pk" transform="translate(89.70421875, 48) scale(0.65)"></path><text x="13" y="86" class="tf fk">doctor_id<tspan x="138.38" class="ty">INTEGER</tspan></text><text x="13" y="111" class="tf fk">patient_id<tspan x="138.38" class="ty">INTEGER</tspan></text><text x="13" y="136" class="tf">date<tspan x="138.38" class="ty">text</tspan></text></svg><svg width="136.02" height="175" x="461.3730769230771" y="318.75615384615384" id="h3621607512" class="t"><rect height="40" width="136.02" class="th"></rect><text x="13" y="25" class="tht">Diagnosis</text><rect height="135" width="136.02" class="t-bg"></rect><text x="13" y="61" class="tf pk">id<tspan x="123.02000000000001" class="ty">serial</tspan></text><path d="M7,14A2,2 0 0,1 5,12A2,2 0 0,1 7,10A2,2 0 0,1 9,12A2,2 0 0,1 7,14M12.65,10C11.83,7.67 9.61,6 7, 6A6, 6 0 0, 0 1, 12A6, 6 0 0, 0 7, 18C9.61, 18 11.83, 16.33 12.65, 14H17V18H21V14H23V10H12.65Z" class="i pk" transform="translate(74.34421875000001, 48) scale(0.65)"></path><text x="13" y="86" class="tf fk">visit_id<tspan x="123.02000000000001" class="ty">INTEGER</tspan></text><text x="13" y="111" class="tf">name<tspan x="123.02000000000001" class="ty">text</tspan></text><text x="13" y="136" class="tf">description<tspan x="123.02000000000001" class="ty">text</tspan></text><text x="13" y="161" class="tf">treatment<tspan x="123.02000000000001" class="ty">text</tspan></text></svg></g></g><text class="qdbd-link" x="10" y="20">www.quickdatabasediagrams.com</text></svg>