<svg class="diagram-root" style="background: #f5f6f6" xmlns="http://www.w3.org/2000/svg" xmlns:xlink="http://www.w3.org/1999/xlink"><style>.diagram-root { font-family: "Helvetica Neue", sans-serif; font-size: 12px; } .t { overflow: visible; } .t-bg { y: 40; fill: #fff;   } .th { fill: #005aa0;   } .tht { fill: #fff; font-size: 14px;  } .tf { fill: #323c46; overflow: visible; } .tf.pk { fill: #005aa0; font-weight: bold; } .tf.fk { font-weight: bold; } .ty { fill: #adb1b5; font-weight: normal; text-anchor: end; } .r { fill: transparent; stroke: #c3c3c3; stroke-width: 1; } .l { stroke: 1; } .i { fill: #c2c7ce; stroke: #c2c7ce; } .i.ix { fill: #afb3b6; stroke: #000; } .fa { fill: transparent; overflow: visible; } .fa .bg.hover { fill: #f7f7f7; } .c { cy: 12; r: 4; stroke: #d2d2dc; fill: #d2d2dc; } .hr { fill: transparent; stroke: #323c46; stroke-opacity: 0.035; stroke-width: 13; } .dc { stroke: #fa5a3c; fill: #fa5a3c; } .x { stroke: white; stroke-width: 1; } .hl .th { fill: #1b9bff; } .hl .tht {  } .fhl .bg { fill: #e7f4ff; } .fhls .bg {  } .r.hl { stroke: #1b9bff; } .dim { opacity: 0.25; }</style><g class="drawing-wrapper" transform="translate(166.49949494949513, -20.0993939393936) scale(1,1)"><g class="rs"><path d="M 335.61 132.1 m -1, 0 a 1,1 0 1,0 2,0 a 1,1 0 1,0 -2,0 M 335.61 132.1 m -0.5, 0 a 0.5,0.5 0 1,0 1,0 a 0.5,0.5 0 1,0 -1,0  M335.61 132.1 L335.61 132.1 323.61 132.1 M 335.61 138.1 m -1, 0 a 1,1 0 1,0 2,0 a 1,1 0 1,0 -2,0 M 335.61 138.1 m -0.5, 0 a 0.5,0.5 0 1,0 1,0 a 0.5,0.5 0 1,0 -1,0  M335.61 138.1 L335.61 138.1 328.61 132.1 335.61 126.1 M 335.61 126.1 m -1, 0 a 1,1 0 1,0 2,0 a 1,1 0 1,0 -2,0 M 335.61 126.1 m -0.5, 0 a 0.5,0.5 0 1,0 1,0 a 0.5,0.5 0 1,0 -1,0  M323.61 132.1 Q 302.31 132.1, 281 124.66 T 238.38 117.21000000000001 M 226.38 117.21000000000001 m -1, 0 a 1,1 0 1,0 2,0 a 1,1 0 1,0 -2,0 M 226.38 117.21000000000001 m -0.5, 0 a 0.5,0.5 0 1,0 1,0 a 0.5,0.5 0 1,0 -1,0  M226.38 117.21000000000001 L226.38 117.21000000000001 238.38 117.21000000000001 M232.38 123.21000000000001 L232.38 123.21000000000001 232.38 111.21000000000001" id="h2561147591" class="r"></path><path d="M 483.65 157.1 m -1, 0 a 1,1 0 1,0 2,0 a 1,1 0 1,0 -2,0 M 483.65 157.1 m -0.5, 0 a 0.5,0.5 0 1,0 1,0 a 0.5,0.5 0 1,0 -1,0  M483.65 157.1 L483.65 157.1 495.65 157.1 M 483.65 163.1 m -1, 0 a 1,1 0 1,0 2,0 a 1,1 0 1,0 -2,0 M 483.65 163.1 m -0.5, 0 a 0.5,0.5 0 1,0 1,0 a 0.5,0.5 0 1,0 -1,0  M483.65 163.1 L483.65 163.1 490.65 157.1 483.65 151.1 M 483.65 151.1 m -1, 0 a 1,1 0 1,0 2,0 a 1,1 0 1,0 -2,0 M 483.65 151.1 m -0.5, 0 a 0.5,0.5 0 1,0 1,0 a 0.5,0.5 0 1,0 -1,0  M495.65 157.1 C 545.65 157.1, 573.706 313.36, 448.89 313.36 M 436.89 313.36 m -1, 0 a 1,1 0 1,0 2,0 a 1,1 0 1,0 -2,0 M 436.89 313.36 m -0.5, 0 a 0.5,0.5 0 1,0 1,0 a 0.5,0.5 0 1,0 -1,0  M436.89 313.36 L436.89 313.36 448.89 313.36 M442.89 319.36 L442.89 319.36 442.89 307.36" id="h883084757" class="r"></path><path d="M 84.35 167.21 m -1, 0 a 1,1 0 1,0 2,0 a 1,1 0 1,0 -2,0 M 84.35 167.21 m -0.5, 0 a 0.5,0.5 0 1,0 1,0 a 0.5,0.5 0 1,0 -1,0  M84.35 167.21 L84.35 167.21 72.35 167.21 M 84.35 173.21 m -1, 0 a 1,1 0 1,0 2,0 a 1,1 0 1,0 -2,0 M 84.35 173.21 m -0.5, 0 a 0.5,0.5 0 1,0 1,0 a 0.5,0.5 0 1,0 -1,0  M84.35 173.21 L84.35 173.21 77.35 167.21 84.35 161.21 M 84.35 161.21 m -1, 0 a 1,1 0 1,0 2,0 a 1,1 0 1,0 -2,0 M 84.35 161.21 m -0.5, 0 a 0.5,0.5 0 1,0 1,0 a 0.5,0.5 0 1,0 -1,0  M72.35 167.21 C 27.402891140940767 167.21, 28.650891140940765 292.05, 70.27 292.05 M 82.27 292.05 m -1, 0 a 1,1 0 1,0 2,0 a 1,1 0 1,0 -2,0 M 82.27 292.05 m -0.5, 0 a 0.5,0.5 0 1,0 1,0 a 0.5,0.5 0 1,0 -1,0  M82.27 292.05 L82.27 292.05 70.27 292.05 M76.27 298.05 L76.27 298.05 76.27 286.05" id="h1043936442" class="r"></path><path d="M 277.52 338.36 m -1, 0 a 1,1 0 1,0 2,0 a 1,1 0 1,0 -2,0 M 277.52 338.36 m -0.5, 0 a 0.5,0.5 0 1,0 1,0 a 0.5,0.5 0 1,0 -1,0  M277.52 338.36 L277.52 338.36 265.52 338.36 M 277.52 344.36 m -1, 0 a 1,1 0 1,0 2,0 a 1,1 0 1,0 -2,0 M 277.52 344.36 m -0.5, 0 a 0.5,0.5 0 1,0 1,0 a 0.5,0.5 0 1,0 -1,0  M277.52 344.36 L277.52 344.36 270.52 338.36 277.52 332.36 M 277.52 332.36 m -1, 0 a 1,1 0 1,0 2,0 a 1,1 0 1,0 -2,0 M 277.52 332.36 m -0.5, 0 a 0.5,0.5 0 1,0 1,0 a 0.5,0.5 0 1,0 -1,0  M265.52 338.36 Q 249.39 338.36, 233.25 315.21 T 200.97 292.05 M 188.97 292.05 m -1, 0 a 1,1 0 1,0 2,0 a 1,1 0 1,0 -2,0 M 188.97 292.05 m -0.5, 0 a 0.5,0.5 0 1,0 1,0 a 0.5,0.5 0 1,0 -1,0  M188.97 292.05 L188.97 292.05 200.97 292.05 M194.97 298.05 L194.97 298.05 194.97 286.05" id="h3010683707" class="r"></path><path d="M 277.52 363.36 m -1, 0 a 1,1 0 1,0 2,0 a 1,1 0 1,0 -2,0 M 277.52 363.36 m -0.5, 0 a 0.5,0.5 0 1,0 1,0 a 0.5,0.5 0 1,0 -1,0  M277.52 363.36 L277.52 363.36 265.52 363.36 M 277.52 369.36 m -1, 0 a 1,1 0 1,0 2,0 a 1,1 0 1,0 -2,0 M 277.52 369.36 m -0.5, 0 a 0.5,0.5 0 1,0 1,0 a 0.5,0.5 0 1,0 -1,0  M277.52 369.36 L277.52 369.36 270.52 363.36 277.52 357.36 M 277.52 357.36 m -1, 0 a 1,1 0 1,0 2,0 a 1,1 0 1,0 -2,0 M 277.52 357.36 m -0.5, 0 a 0.5,0.5 0 1,0 1,0 a 0.5,0.5 0 1,0 -1,0  M265.52 363.36 Q 249.39 363.36, 233.25 327.71 T 200.97 292.05 M 188.97 292.05 m -1, 0 a 1,1 0 1,0 2,0 a 1,1 0 1,0 -2,0 M 188.97 292.05 m -0.5, 0 a 0.5,0.5 0 1,0 1,0 a 0.5,0.5 0 1,0 -1,0  M188.97 292.05 L188.97 292.05 200.97 292.05 M194.97 298.05 L194.97 298.05 194.97 286.05" id="h830452700" class="r"></path><path d="M 436.89 388.36 m -1, 0 a 1,1 0 1,0 2,0 a 1,1 0 1,0 -2,0 M 436.89 388.36 m -0.5, 0 a 0.5,0.5 0 1,0 1,0 a 0.5,0.5 0 1,0 -1,0  M436.89 388.36 L436.89 388.36 448.89 388.36 M 436.89 394.36 m -1, 0 a 1,1 0 1,0 2,0 a 1,1 0 1,0 -2,0 M 436.89 394.36 m -0.5, 0 a 0.5,0.5 0 1,0 1,0 a 0.5,0.5 0 1,0 -1,0  M436.89 394.36 L436.89 394.36 443.89 388.36 436.89 382.36 M 436.89 382.36 m -1, 0 a 1,1 0 1,0 2,0 a 1,1 0 1,0 -2,0 M 436.89 382.36 m -0.5, 0 a 0.5,0.5 0 1,0 1,0 a 0.5,0.5 0 1,0 -1,0  M448.89 388.36 Q 466.14 388.36, 483.38 373.97 T 517.86 359.57 M 529.86 359.57 m -1, 0 a 1,1 0 1,0 2,0 a 1,1 0 1,0 -2,0 M 529.86 359.57 m -0.5, 0 a 0.5,0.5 0 1,0 1,0 a 0.5,0.5 0 1,0 -1,0  M529.86 359.57 L529.86 359.57 517.86 359.57 M523.86 365.57 L523.86 365.57 523.86 353.57" id="h4181167750" class="r"></path><path d="M 277.52 438.36 m -1, 0 a 1,1 0 1,0 2,0 a 1,1 0 1,0 -2,0 M 277.52 438.36 m -0.5, 0 a 0.5,0.5 0 1,0 1,0 a 0.5,0.5 0 1,0 -1,0  M277.52 438.36 L277.52 438.36 265.52 438.36 M 277.52 444.36 m -1, 0 a 1,1 0 1,0 2,0 a 1,1 0 1,0 -2,0 M 277.52 444.36 m -0.5, 0 a 0.5,0.5 0 1,0 1,0 a 0.5,0.5 0 1,0 -1,0  M277.52 444.36 L277.52 444.36 270.52 438.36 277.52 432.36 M 277.52 432.36 m -1, 0 a 1,1 0 1,0 2,0 a 1,1 0 1,0 -2,0 M 277.52 432.36 m -0.5, 0 a 0.5,0.5 0 1,0 1,0 a 0.5,0.5 0 1,0 -1,0  M265.52 438.36 Q 249.64 438.36, 233.75 442.73 T 201.97 447.1 M 189.97 447.1 m -1, 0 a 1,1 0 1,0 2,0 a 1,1 0 1,0 -2,0 M 189.97 447.1 m -0.5, 0 a 0.5,0.5 0 1,0 1,0 a 0.5,0.5 0 1,0 -1,0  M189.97 447.1 L189.97 447.1 201.97 447.1 M195.97 453.1 L195.97 453.1 195.97 441.1" id="h2372472583" class="r"></path><path d="M 436.89 463.36 m -1, 0 a 1,1 0 1,0 2,0 a 1,1 0 1,0 -2,0 M 436.89 463.36 m -0.5, 0 a 0.5,0.5 0 1,0 1,0 a 0.5,0.5 0 1,0 -1,0  M436.89 463.36 L436.89 463.36 448.89 463.36 M 436.89 469.36 m -1, 0 a 1,1 0 1,0 2,0 a 1,1 0 1,0 -2,0 M 436.89 469.36 m -0.5, 0 a 0.5,0.5 0 1,0 1,0 a 0.5,0.5 0 1,0 -1,0  M436.89 469.36 L436.89 469.36 443.89 463.36 436.89 457.36 M 436.89 457.36 m -1, 0 a 1,1 0 1,0 2,0 a 1,1 0 1,0 -2,0 M 436.89 457.36 m -0.5, 0 a 0.5,0.5 0 1,0 1,0 a 0.5,0.5 0 1,0 -1,0  M448.89 463.36 Q 464.71 463.36, 480.52 480.61 T 512.14 497.86 M 524.14 497.86 m -1, 0 a 1,1 0 1,0 2,0 a 1,1 0 1,0 -2,0 M 524.14 497.86 m -0.5, 0 a 0.5,0.5 0 1,0 1,0 a 0.5,0.5 0 1,0 -1,0  M524.14 497.86 L524.14 497.86 512.14 497.86 M518.14 503.86 L518.14 503.86 518.14 491.86" id="h749497876" class="r"></path><path d="M -2.47 332.51 m -1, 0 a 1,1 0 1,0 2,0 a 1,1 0 1,0 -2,0 M -2.47 332.51 m -0.5, 0 a 0.5,0.5 0 1,0 1,0 a 0.5,0.5 0 1,0 -1,0  M-2.47 332.51 L-2.47 332.51 9.53 332.51 M -2.47 338.51 m -1, 0 a 1,1 0 1,0 2,0 a 1,1 0 1,0 -2,0 M -2.47 338.51 m -0.5, 0 a 0.5,0.5 0 1,0 1,0 a 0.5,0.5 0 1,0 -1,0  M-2.47 338.51 L-2.47 338.51 4.529999999999999 332.51 -2.47 326.51 M -2.47 326.51 m -1, 0 a 1,1 0 1,0 2,0 a 1,1 0 1,0 -2,0 M -2.47 326.51 m -0.5, 0 a 0.5,0.5 0 1,0 1,0 a 0.5,0.5 0 1,0 -1,0  M9.53 332.51 Q 24.72 332.51, 39.9 312.28 T 70.27 292.05 M 82.27 292.05 m -1, 0 a 1,1 0 1,0 2,0 a 1,1 0 1,0 -2,0 M 82.27 292.05 m -0.5, 0 a 0.5,0.5 0 1,0 1,0 a 0.5,0.5 0 1,0 -1,0  M82.27 292.05 L82.27 292.05 70.27 292.05 M76.27 298.05 L76.27 298.05 76.27 286.05" id="h1973313140" class="r"></path></g><g class="hrs"></g><g class="ts"><svg width="106.7" height="125" x="82.27" y="235.05" id="h3010508784" class="t"><rect height="40" width="106.7" class="th"></rect><text x="13" y="25" class="tht">Teams</text><rect height="85" width="106.7" class="t-bg"></rect><text x="13" y="61" class="tf pk">id<tspan x="93.7" class="ty">serial</tspan></text><path d="M7,14A2,2 0 0,1 5,12A2,2 0 0,1 7,10A2,2 0 0,1 9,12A2,2 0 0,1 7,14M12.65,10C11.83,7.67 9.61,6 7, 6A6, 6 0 0, 0 1, 12A6, 6 0 0, 0 7, 18C9.61, 18 11.83, 16.33 12.65, 14H17V18H21V14H23V10H12.65Z" class="i pk" transform="translate(45.02421875, 48) scale(0.65)"></path><text x="13" y="86" class="tf">name<tspan x="93.7" class="ty">text</tspan></text><text x="13" y="111" class="tf">location<tspan x="93.7" class="ty">text</tspan></text></svg><svg width="148.04" height="125" x="335.61" y="50.1" id="h2207534861" class="t"><rect height="40" width="148.04" class="th"></rect><text x="13" y="25" class="tht">Goals</text><rect height="85" width="148.04" class="t-bg"></rect><text x="13" y="61" class="tf pk">id<tspan x="135.04" class="ty">serial</tspan></text><path d="M7,14A2,2 0 0,1 5,12A2,2 0 0,1 7,10A2,2 0 0,1 9,12A2,2 0 0,1 7,14M12.65,10C11.83,7.67 9.61,6 7, 6A6, 6 0 0, 0 1, 12A6, 6 0 0, 0 7, 18C9.61, 18 11.83, 16.33 12.65, 14H17V18H21V14H23V10H12.65Z" class="i pk" transform="translate(86.36421874999999, 48) scale(0.65)"></path><text x="13" y="86" class="tf fk">player_id<tspan x="135.04" class="ty">INTEGER</tspan></text><text x="13" y="111" class="tf fk">match_id<tspan x="135.04" class="ty">INTEGER</tspan></text></svg><svg width="142.03" height="125" x="84.35" y="60.21" id="h4103274130" class="t"><rect height="40" width="142.03" class="th"></rect><text x="13" y="25" class="tht">Players</text><rect height="85" width="142.03" class="t-bg"></rect><text x="13" y="61" class="tf pk">id<tspan x="129.03" class="ty">serial</tspan></text><path d="M7,14A2,2 0 0,1 5,12A2,2 0 0,1 7,10A2,2 0 0,1 9,12A2,2 0 0,1 7,14M12.65,10C11.83,7.67 9.61,6 7, 6A6, 6 0 0, 0 1, 12A6, 6 0 0, 0 7, 18C9.61, 18 11.83, 16.33 12.65, 14H17V18H21V14H23V10H12.65Z" class="i pk" transform="translate(80.35421875, 48) scale(0.65)"></path><text x="13" y="86" class="tf">name<tspan x="129.03" class="ty">text</tspan></text><text x="13" y="111" class="tf fk">team_id<tspan x="129.03" class="ty">INTEGER</tspan></text></svg><svg width="104.02" height="100" x="524.14" y="440.86" id="h332749422" class="t"><rect height="40" width="104.02" class="th"></rect><text x="13" y="25" class="tht">Referees</text><rect height="60" width="104.02" class="t-bg"></rect><text x="13" y="61" class="tf pk">id<tspan x="91.02" class="ty">serial</tspan></text><path d="M7,14A2,2 0 0,1 5,12A2,2 0 0,1 7,10A2,2 0 0,1 9,12A2,2 0 0,1 7,14M12.65,10C11.83,7.67 9.61,6 7, 6A6, 6 0 0, 0 1, 12A6, 6 0 0, 0 7, 18C9.61, 18 11.83, 16.33 12.65, 14H17V18H21V14H23V10H12.65Z" class="i pk" transform="translate(42.344218749999996, 48) scale(0.65)"></path><text x="13" y="86" class="tf">name<tspan x="91.02" class="ty">text</tspan></text></svg><svg width="159.37" height="225" x="277.52" y="256.36" id="h3829905542" class="t"><rect height="40" width="159.37" class="th"></rect><text x="13" y="25" class="tht">Matches</text><rect height="185" width="159.37" class="t-bg"></rect><text x="13" y="61" class="tf pk">id<tspan x="146.37" class="ty">serial</tspan></text><path d="M7,14A2,2 0 0,1 5,12A2,2 0 0,1 7,10A2,2 0 0,1 9,12A2,2 0 0,1 7,14M12.65,10C11.83,7.67 9.61,6 7, 6A6, 6 0 0, 0 1, 12A6, 6 0 0, 0 7, 18C9.61, 18 11.83, 16.33 12.65, 14H17V18H21V14H23V10H12.65Z" class="i pk" transform="translate(97.69421875, 48) scale(0.65)"></path><text x="13" y="86" class="tf fk">team_1<tspan x="146.37" class="ty">INTEGER</tspan></text><text x="13" y="111" class="tf fk">team_2<tspan x="146.37" class="ty">INTEGER</tspan></text><text x="13" y="136" class="tf fk">stadium_id<tspan x="146.37" class="ty">INTEGER</tspan></text><text x="13" y="161" class="tf">date<tspan x="146.37" class="ty">text</tspan></text><text x="13" y="186" class="tf fk">season_id<tspan x="146.37" class="ty">INTEGER</tspan></text><text x="13" y="211" class="tf fk">referees_id<tspan x="146.37" class="ty">INTEGER</tspan></text></svg><svg width="118.71" height="125" x="71.26" y="390.1" id="h3133071897" class="t"><rect height="40" width="118.71" class="th"></rect><text x="13" y="25" class="tht">Season</text><rect height="85" width="118.71" class="t-bg"></rect><text x="13" y="61" class="tf pk">id<tspan x="105.71" class="ty">serial</tspan></text><path d="M7,14A2,2 0 0,1 5,12A2,2 0 0,1 7,10A2,2 0 0,1 9,12A2,2 0 0,1 7,14M12.65,10C11.83,7.67 9.61,6 7, 6A6, 6 0 0, 0 1, 12A6, 6 0 0, 0 7, 18C9.61, 18 11.83, 16.33 12.65, 14H17V18H21V14H23V10H12.65Z" class="i pk" transform="translate(57.034218749999994, 48) scale(0.65)"></path><text x="13" y="86" class="tf">start_date<tspan x="105.71" class="ty">text</tspan></text><text x="13" y="111" class="tf">end_date<tspan x="105.71" class="ty">text</tspan></text></svg><svg width="142.03" height="125" x="-144.5" y="250.51" id="h405608403" class="t"><rect height="40" width="142.03" class="th"></rect><text x="13" y="25" class="tht">Standings</text><rect height="85" width="142.03" class="t-bg"></rect><text x="13" y="61" class="tf pk">id<tspan x="129.03" class="ty">serial</tspan></text><path d="M7,14A2,2 0 0,1 5,12A2,2 0 0,1 7,10A2,2 0 0,1 9,12A2,2 0 0,1 7,14M12.65,10C11.83,7.67 9.61,6 7, 6A6, 6 0 0, 0 1, 12A6, 6 0 0, 0 7, 18C9.61, 18 11.83, 16.33 12.65, 14H17V18H21V14H23V10H12.65Z" class="i pk" transform="translate(80.35421875, 48) scale(0.65)"></path><text x="13" y="86" class="tf fk">team_id<tspan x="129.03" class="ty">INTEGER</tspan></text><text x="13" y="111" class="tf">rank<tspan x="129.03" class="ty">INTEGER</tspan></text></svg><svg width="104.02" height="100" x="529.86" y="302.57" id="h3886861045" class="t"><rect height="40" width="104.02" class="th"></rect><text x="13" y="25" class="tht">Stadiums</text><rect height="60" width="104.02" class="t-bg"></rect><text x="13" y="61" class="tf pk">id<tspan x="91.02" class="ty">serial</tspan></text><path d="M7,14A2,2 0 0,1 5,12A2,2 0 0,1 7,10A2,2 0 0,1 9,12A2,2 0 0,1 7,14M12.65,10C11.83,7.67 9.61,6 7, 6A6, 6 0 0, 0 1, 12A6, 6 0 0, 0 7, 18C9.61, 18 11.83, 16.33 12.65, 14H17V18H21V14H23V10H12.65Z" class="i pk" transform="translate(42.344218749999996, 48) scale(0.65)"></path><text x="13" y="86" class="tf">name<tspan x="91.02" class="ty">text</tspan></text></svg></g></g><text class="qdbd-link" x="10" y="20">www.quickdatabasediagrams.com</text></svg>